<svg xmlns="http://www.w3.org/2000/svg" width="900" height="540" viewBox="0 0 900 540">
<rect width="100%" height="100%" fill="white"/>
<style>text{font-family:system-ui,sans-serif;fill:#111}.axis{stroke:#111;stroke-width:1}.grid{stroke:#ccc;stroke-width:1;stroke-dasharray:4 5}.sync{fill:none;stroke:#111;stroke-width:3}.async{fill:none;stroke:#111;stroke-width:3;stroke-dasharray:10 7}.mark{fill:white;stroke:#111;stroke-width:2}</style>
<text x="450" y="25" text-anchor="middle" font-size="20" font-weight="600">Final cooperation by update schedule</text>
<line class="grid" x1="80" y1="470" x2="870" y2="470"/><text x="68" y="475" text-anchor="end" font-size="14">0.0</text>
<line class="grid" x1="80" y1="384" x2="870" y2="384"/><text x="68" y="389" text-anchor="end" font-size="14">0.2</text>
<line class="grid" x1="80" y1="298" x2="870" y2="298"/><text x="68" y="303" text-anchor="end" font-size="14">0.4</text>
<line class="grid" x1="80" y1="212" x2="870" y2="212"/><text x="68" y="217" text-anchor="end" font-size="14">0.6</text>
<line class="grid" x1="80" y1="126" x2="870" y2="126"/><text x="68" y="131" text-anchor="end" font-size="14">0.8</text>
<line class="grid" x1="80" y1="40" x2="870" y2="40"/><text x="68" y="45" text-anchor="end" font-size="14">1.0</text>
<line class="grid" x1="80" y1="40" x2="80" y2="470"/><text x="80" y="495" text-anchor="middle" font-size="13">1.05</text>
<line class="grid" x1="167.8" y1="40" x2="167.8" y2="470"/><text x="167.8" y="495" text-anchor="middle" font-size="13">1.15</text>
<line class="grid" x1="255.6" y1="40" x2="255.6" y2="470"/><text x="255.6" y="495" text-anchor="middle" font-size="13">1.25</text>
<line class="grid" x1="343.3" y1="40" x2="343.3" y2="470"/><text x="343.3" y="495" text-anchor="middle" font-size="13">1.35</text>
<line class="grid" x1="431.1" y1="40" x2="431.1" y2="470"/><text x="431.1" y="495" text-anchor="middle" font-size="13">1.45</text>
<line class="grid" x1="518.9" y1="40" x2="518.9" y2="470"/><text x="518.9" y="495" text-anchor="middle" font-size="13">1.55</text>
<line class="grid" x1="606.7" y1="40" x2="606.7" y2="470"/><text x="606.7" y="495" text-anchor="middle" font-size="13">1.65</text>
<line class="grid" x1="694.4" y1="40" x2="694.4" y2="470"/><text x="694.4" y="495" text-anchor="middle" font-size="13">1.75</text>
<line class="grid" x1="782.2" y1="40" x2="782.2" y2="470"/><text x="782.2" y="495" text-anchor="middle" font-size="13">1.85</text>
<line class="grid" x1="870" y1="40" x2="870" y2="470"/><text x="870" y="495" text-anchor="middle" font-size="13">1.95</text>
<line class="axis" x1="80" y1="40" x2="80" y2="470"/><line class="axis" x1="80" y1="470" x2="870" y2="470"/>
<text x="475" y="522" text-anchor="middle" font-size="16">Temptation (b)</text>
<text x="22" y="255" text-anchor="middle" font-size="16" transform="rotate(-90 22 255)">Median final cooperator fraction</text>
<polyline class="sync" points="80,49.6 167.8,64.8 255.6,73.4 343.3,92.6 431.1,103.1 518.9,138.4 606.7,160.4 694.4,169 782.2,349.6 870,349.6"/>
<polyline class="async" points="80,57.2 167.8,84.9 255.6,89.7 343.3,131.7 431.1,134.6 518.9,191.9 606.7,177.6 694.4,277.9 782.2,470 870,470"/>
<circle class="mark" cx="80" cy="49.6" r="5"/><circle class="mark" cx="167.8" cy="64.8" r="5"/><circle class="mark" cx="255.6" cy="73.4" r="5"/><circle class="mark" cx="343.3" cy="92.6" r="5"/><circle class="mark" cx="431.1" cy="103.1" r="5"/><circle class="mark" cx="518.9" cy="138.4" r="5"/><circle class="mark" cx="606.7" cy="160.4" r="5"/><circle class="mark" cx="694.4" cy="169" r="5"/><circle class="mark" cx="782.2" cy="349.6" r="5"/><circle class="mark" cx="870" cy="349.6" r="5"/>
<rect class="mark" x="75" y="52.2" width="10" height="10"/><rect class="mark" x="162.8" y="79.9" width="10" height="10"/><rect class="mark" x="250.6" y="84.7" width="10" height="10"/><rect class="mark" x="338.3" y="126.7" width="10" height="10"/><rect class="mark" x="426.1" y="129.6" width="10" height="10"/><rect class="mark" x="513.9" y="186.9" width="10" height="10"/><rect class="mark" x="601.7" y="172.6" width="10" height="10"/><rect class="mark" x="689.4" y="272.9" width="10" height="10"/><rect class="mark" x="777.2" y="465" width="10" height="10"/><rect class="mark" x="865" y="465" width="10" height="10"/>
<rect x="640" y="60" width="225" height="70" fill="white" stroke="#111"/>
<line class="sync" x1="655" y1="83" x2="700" y2="83"/><circle class="mark" cx="678" cy="83" r="5"/><text x="712" y="88" font-size="14">Synchronous</text>
<line class="async" x1="655" y1="110" x2="700" y2="110"/><rect class="mark" x="673" y="105" width="10" height="10"/><text x="712" y="115" font-size="14">Random-sequential</text>
</svg>
